<mxfile host="app.diagrams.net" agent="Mozilla/5.0 (Windows NT 10.0; Win64; x64) AppleWebKit/537.36 (KHTML, like Gecko) Chrome/130.0.0.0 Safari/537.36" version="24.8.3" pages="2">
  <diagram name="FlowMap" id="AJqBy3dtdKaNt6uwC_98">
    <mxGraphModel dx="1485" dy="940" grid="1" gridSize="10" guides="1" tooltips="1" connect="1" arrows="1" fold="1" page="1" pageScale="1" pageWidth="850" pageHeight="1100" math="0" shadow="0">
      <root>
        <mxCell id="0" />
        <mxCell id="1" parent="0" />
        <mxCell id="wqZgI4M5ixBPsBJ4GlHK-1" value="Pelanggan" style="swimlane;whiteSpace=wrap;html=1;hachureGap=4;fontFamily=Architects Daughter;fontSource=https%3A%2F%2Ffonts.googleapis.com%2Fcss%3Ffamily%3DArchitects%2BDaughter;" vertex="1" parent="1">
          <mxGeometry x="140" y="215" width="200" height="770" as="geometry" />
        </mxCell>
        <mxCell id="wqZgI4M5ixBPsBJ4GlHK-14" style="edgeStyle=orthogonalEdgeStyle;rounded=0;sketch=1;hachureGap=4;jiggle=2;curveFitting=1;orthogonalLoop=1;jettySize=auto;html=1;fontFamily=Architects Daughter;fontSource=https%3A%2F%2Ffonts.googleapis.com%2Fcss%3Ffamily%3DArchitects%2BDaughter;" edge="1" parent="wqZgI4M5ixBPsBJ4GlHK-1" source="wqZgI4M5ixBPsBJ4GlHK-4" target="wqZgI4M5ixBPsBJ4GlHK-7">
          <mxGeometry relative="1" as="geometry" />
        </mxCell>
        <mxCell id="wqZgI4M5ixBPsBJ4GlHK-4" value="Mulai" style="ellipse;whiteSpace=wrap;html=1;hachureGap=4;fontFamily=Architects Daughter;fontSource=https%3A%2F%2Ffonts.googleapis.com%2Fcss%3Ffamily%3DArchitects%2BDaughter;" vertex="1" parent="wqZgI4M5ixBPsBJ4GlHK-1">
          <mxGeometry x="65" y="40" width="70" height="40" as="geometry" />
        </mxCell>
        <mxCell id="wqZgI4M5ixBPsBJ4GlHK-5" value="Bertanya&amp;nbsp;&lt;div&gt;perihal&lt;/div&gt;&lt;div&gt;barang&lt;/div&gt;" style="shape=parallelogram;perimeter=parallelogramPerimeter;whiteSpace=wrap;html=1;fixedSize=1;sketch=1;hachureGap=4;jiggle=2;curveFitting=1;fontFamily=Architects Daughter;fontSource=https%3A%2F%2Ffonts.googleapis.com%2Fcss%3Ffamily%3DArchitects%2BDaughter;" vertex="1" parent="wqZgI4M5ixBPsBJ4GlHK-1">
          <mxGeometry x="52.5" y="210" width="95" height="50" as="geometry" />
        </mxCell>
        <mxCell id="wqZgI4M5ixBPsBJ4GlHK-15" style="edgeStyle=orthogonalEdgeStyle;rounded=0;sketch=1;hachureGap=4;jiggle=2;curveFitting=1;orthogonalLoop=1;jettySize=auto;html=1;entryX=0.5;entryY=0;entryDx=0;entryDy=0;fontFamily=Architects Daughter;fontSource=https%3A%2F%2Ffonts.googleapis.com%2Fcss%3Ffamily%3DArchitects%2BDaughter;" edge="1" parent="wqZgI4M5ixBPsBJ4GlHK-1" source="wqZgI4M5ixBPsBJ4GlHK-7" target="wqZgI4M5ixBPsBJ4GlHK-5">
          <mxGeometry relative="1" as="geometry" />
        </mxCell>
        <mxCell id="wqZgI4M5ixBPsBJ4GlHK-7" value="Mencari Barang" style="rounded=0;whiteSpace=wrap;html=1;sketch=1;hachureGap=4;jiggle=2;curveFitting=1;fontFamily=Architects Daughter;fontSource=https%3A%2F%2Ffonts.googleapis.com%2Fcss%3Ffamily%3DArchitects%2BDaughter;" vertex="1" parent="wqZgI4M5ixBPsBJ4GlHK-1">
          <mxGeometry x="60" y="120" width="80" height="50" as="geometry" />
        </mxCell>
        <mxCell id="wqZgI4M5ixBPsBJ4GlHK-22" value="Melakukan pembayaran" style="shape=parallelogram;perimeter=parallelogramPerimeter;whiteSpace=wrap;html=1;fixedSize=1;sketch=1;hachureGap=4;jiggle=2;curveFitting=1;fontFamily=Architects Daughter;fontSource=https%3A%2F%2Ffonts.googleapis.com%2Fcss%3Ffamily%3DArchitects%2BDaughter;" vertex="1" parent="wqZgI4M5ixBPsBJ4GlHK-1">
          <mxGeometry x="52.5" y="410" width="95" height="50" as="geometry" />
        </mxCell>
        <mxCell id="wqZgI4M5ixBPsBJ4GlHK-2" value="Kasir" style="swimlane;whiteSpace=wrap;html=1;hachureGap=4;fontFamily=Architects Daughter;fontSource=https%3A%2F%2Ffonts.googleapis.com%2Fcss%3Ffamily%3DArchitects%2BDaughter;" vertex="1" parent="1">
          <mxGeometry x="340" y="215" width="300" height="770" as="geometry" />
        </mxCell>
        <mxCell id="wqZgI4M5ixBPsBJ4GlHK-9" value="Mengecek stok barang" style="rounded=0;whiteSpace=wrap;html=1;sketch=1;hachureGap=4;jiggle=2;curveFitting=1;fontFamily=Architects Daughter;fontSource=https%3A%2F%2Ffonts.googleapis.com%2Fcss%3Ffamily%3DArchitects%2BDaughter;" vertex="1" parent="wqZgI4M5ixBPsBJ4GlHK-2">
          <mxGeometry x="65" y="210" width="80" height="50" as="geometry" />
        </mxCell>
        <mxCell id="wqZgI4M5ixBPsBJ4GlHK-20" style="edgeStyle=orthogonalEdgeStyle;rounded=0;sketch=1;hachureGap=4;jiggle=2;curveFitting=1;orthogonalLoop=1;jettySize=auto;html=1;entryX=0.5;entryY=0;entryDx=0;entryDy=0;fontFamily=Architects Daughter;fontSource=https%3A%2F%2Ffonts.googleapis.com%2Fcss%3Ffamily%3DArchitects%2BDaughter;" edge="1" parent="wqZgI4M5ixBPsBJ4GlHK-2" source="wqZgI4M5ixBPsBJ4GlHK-10" target="wqZgI4M5ixBPsBJ4GlHK-19">
          <mxGeometry relative="1" as="geometry" />
        </mxCell>
        <mxCell id="XhEECG2n9QOZzSU5Pdov-4" style="edgeStyle=orthogonalEdgeStyle;rounded=0;sketch=1;hachureGap=4;jiggle=2;curveFitting=1;orthogonalLoop=1;jettySize=auto;html=1;entryX=0;entryY=0.5;entryDx=0;entryDy=0;fontFamily=Architects Daughter;fontSource=https%3A%2F%2Ffonts.googleapis.com%2Fcss%3Ffamily%3DArchitects%2BDaughter;" edge="1" parent="wqZgI4M5ixBPsBJ4GlHK-2" source="wqZgI4M5ixBPsBJ4GlHK-10" target="XhEECG2n9QOZzSU5Pdov-2">
          <mxGeometry relative="1" as="geometry" />
        </mxCell>
        <mxCell id="wqZgI4M5ixBPsBJ4GlHK-10" value="Tersedia?" style="rhombus;whiteSpace=wrap;html=1;sketch=1;hachureGap=4;jiggle=2;curveFitting=1;fontFamily=Architects Daughter;fontSource=https%3A%2F%2Ffonts.googleapis.com%2Fcss%3Ffamily%3DArchitects%2BDaughter;" vertex="1" parent="wqZgI4M5ixBPsBJ4GlHK-2">
          <mxGeometry x="70" y="300" width="70" height="70" as="geometry" />
        </mxCell>
        <mxCell id="wqZgI4M5ixBPsBJ4GlHK-13" style="edgeStyle=orthogonalEdgeStyle;rounded=0;sketch=1;hachureGap=4;jiggle=2;curveFitting=1;orthogonalLoop=1;jettySize=auto;html=1;entryX=0.493;entryY=0.107;entryDx=0;entryDy=0;entryPerimeter=0;fontFamily=Architects Daughter;fontSource=https%3A%2F%2Ffonts.googleapis.com%2Fcss%3Ffamily%3DArchitects%2BDaughter;" edge="1" parent="wqZgI4M5ixBPsBJ4GlHK-2" source="wqZgI4M5ixBPsBJ4GlHK-9" target="wqZgI4M5ixBPsBJ4GlHK-10">
          <mxGeometry relative="1" as="geometry" />
        </mxCell>
        <mxCell id="wqZgI4M5ixBPsBJ4GlHK-19" value="Menginfokan&amp;nbsp;&lt;div&gt;ke pelanggan&amp;nbsp;&lt;/div&gt;" style="shape=parallelogram;perimeter=parallelogramPerimeter;whiteSpace=wrap;html=1;fixedSize=1;sketch=1;hachureGap=4;jiggle=2;curveFitting=1;fontFamily=Architects Daughter;fontSource=https%3A%2F%2Ffonts.googleapis.com%2Fcss%3Ffamily%3DArchitects%2BDaughter;" vertex="1" parent="wqZgI4M5ixBPsBJ4GlHK-2">
          <mxGeometry x="58" y="410" width="95" height="50" as="geometry" />
        </mxCell>
        <mxCell id="wqZgI4M5ixBPsBJ4GlHK-28" style="edgeStyle=orthogonalEdgeStyle;rounded=0;sketch=1;hachureGap=4;jiggle=2;curveFitting=1;orthogonalLoop=1;jettySize=auto;html=1;fontFamily=Architects Daughter;fontSource=https%3A%2F%2Ffonts.googleapis.com%2Fcss%3Ffamily%3DArchitects%2BDaughter;" edge="1" parent="wqZgI4M5ixBPsBJ4GlHK-2" source="wqZgI4M5ixBPsBJ4GlHK-25" target="wqZgI4M5ixBPsBJ4GlHK-27">
          <mxGeometry relative="1" as="geometry" />
        </mxCell>
        <mxCell id="wqZgI4M5ixBPsBJ4GlHK-25" value="Menerima pembayaran" style="rounded=0;whiteSpace=wrap;html=1;sketch=1;hachureGap=4;jiggle=2;curveFitting=1;fontFamily=Architects Daughter;fontSource=https%3A%2F%2Ffonts.googleapis.com%2Fcss%3Ffamily%3DArchitects%2BDaughter;" vertex="1" parent="wqZgI4M5ixBPsBJ4GlHK-2">
          <mxGeometry x="65" y="500" width="80" height="50" as="geometry" />
        </mxCell>
        <mxCell id="wqZgI4M5ixBPsBJ4GlHK-27" value="Membuat laporan transaksi, keuntungan, dan stok barang" style="rounded=0;whiteSpace=wrap;html=1;sketch=1;hachureGap=4;jiggle=2;curveFitting=1;fontFamily=Architects Daughter;fontSource=https%3A%2F%2Ffonts.googleapis.com%2Fcss%3Ffamily%3DArchitects%2BDaughter;" vertex="1" parent="wqZgI4M5ixBPsBJ4GlHK-2">
          <mxGeometry x="48" y="590" width="115" height="100" as="geometry" />
        </mxCell>
        <mxCell id="wqZgI4M5ixBPsBJ4GlHK-34" value="Ya" style="text;html=1;align=center;verticalAlign=middle;whiteSpace=wrap;rounded=0;fontFamily=Architects Daughter;fontSource=https%3A%2F%2Ffonts.googleapis.com%2Fcss%3Ffamily%3DArchitects%2BDaughter;" vertex="1" parent="wqZgI4M5ixBPsBJ4GlHK-2">
          <mxGeometry x="55" y="370" width="60" height="30" as="geometry" />
        </mxCell>
        <mxCell id="wqZgI4M5ixBPsBJ4GlHK-35" value="Tidak" style="text;html=1;align=center;verticalAlign=middle;whiteSpace=wrap;rounded=0;fontFamily=Architects Daughter;fontSource=https%3A%2F%2Ffonts.googleapis.com%2Fcss%3Ffamily%3DArchitects%2BDaughter;" vertex="1" parent="wqZgI4M5ixBPsBJ4GlHK-2">
          <mxGeometry x="10" y="300" width="60" height="30" as="geometry" />
        </mxCell>
        <mxCell id="XhEECG2n9QOZzSU5Pdov-2" value="meminta Pak Wanto agar di restock" style="rounded=0;whiteSpace=wrap;html=1;sketch=1;hachureGap=4;jiggle=2;curveFitting=1;fontFamily=Architects Daughter;fontSource=https%3A%2F%2Ffonts.googleapis.com%2Fcss%3Ffamily%3DArchitects%2BDaughter;" vertex="1" parent="wqZgI4M5ixBPsBJ4GlHK-2">
          <mxGeometry x="200" y="310" width="80" height="50" as="geometry" />
        </mxCell>
        <mxCell id="XhEECG2n9QOZzSU5Pdov-7" value="Tidak" style="text;html=1;align=center;verticalAlign=middle;whiteSpace=wrap;rounded=0;fontFamily=Architects Daughter;fontSource=https%3A%2F%2Ffonts.googleapis.com%2Fcss%3Ffamily%3DArchitects%2BDaughter;" vertex="1" parent="wqZgI4M5ixBPsBJ4GlHK-2">
          <mxGeometry x="140" y="300" width="60" height="30" as="geometry" />
        </mxCell>
        <mxCell id="wqZgI4M5ixBPsBJ4GlHK-3" value="Pak Wanto" style="swimlane;whiteSpace=wrap;html=1;hachureGap=4;fontFamily=Architects Daughter;fontSource=https%3A%2F%2Ffonts.googleapis.com%2Fcss%3Ffamily%3DArchitects%2BDaughter;" vertex="1" parent="1">
          <mxGeometry x="640" y="215" width="260" height="770" as="geometry" />
        </mxCell>
        <mxCell id="wqZgI4M5ixBPsBJ4GlHK-31" value="Menerima Laporan" style="shape=parallelogram;perimeter=parallelogramPerimeter;whiteSpace=wrap;html=1;fixedSize=1;sketch=1;hachureGap=4;jiggle=2;curveFitting=1;fontFamily=Architects Daughter;fontSource=https%3A%2F%2Ffonts.googleapis.com%2Fcss%3Ffamily%3DArchitects%2BDaughter;" vertex="1" parent="wqZgI4M5ixBPsBJ4GlHK-3">
          <mxGeometry x="52.5" y="615" width="95" height="50" as="geometry" />
        </mxCell>
        <mxCell id="XhEECG2n9QOZzSU5Pdov-3" value="Menambah stok barang" style="rounded=0;whiteSpace=wrap;html=1;sketch=1;hachureGap=4;jiggle=2;curveFitting=1;fontFamily=Architects Daughter;fontSource=https%3A%2F%2Ffonts.googleapis.com%2Fcss%3Ffamily%3DArchitects%2BDaughter;" vertex="1" parent="wqZgI4M5ixBPsBJ4GlHK-3">
          <mxGeometry x="90" y="310" width="80" height="50" as="geometry" />
        </mxCell>
        <mxCell id="wqZgI4M5ixBPsBJ4GlHK-11" style="edgeStyle=orthogonalEdgeStyle;rounded=0;sketch=1;hachureGap=4;jiggle=2;curveFitting=1;orthogonalLoop=1;jettySize=auto;html=1;entryX=0;entryY=0.5;entryDx=0;entryDy=0;fontFamily=Architects Daughter;fontSource=https%3A%2F%2Ffonts.googleapis.com%2Fcss%3Ffamily%3DArchitects%2BDaughter;" edge="1" parent="1" source="wqZgI4M5ixBPsBJ4GlHK-10" target="wqZgI4M5ixBPsBJ4GlHK-7">
          <mxGeometry relative="1" as="geometry">
            <Array as="points">
              <mxPoint x="160" y="550" />
              <mxPoint x="160" y="360" />
            </Array>
          </mxGeometry>
        </mxCell>
        <mxCell id="wqZgI4M5ixBPsBJ4GlHK-12" style="edgeStyle=orthogonalEdgeStyle;rounded=0;sketch=1;hachureGap=4;jiggle=2;curveFitting=1;orthogonalLoop=1;jettySize=auto;html=1;entryX=0;entryY=0.5;entryDx=0;entryDy=0;fontFamily=Architects Daughter;fontSource=https%3A%2F%2Ffonts.googleapis.com%2Fcss%3Ffamily%3DArchitects%2BDaughter;" edge="1" parent="1" source="wqZgI4M5ixBPsBJ4GlHK-5" target="wqZgI4M5ixBPsBJ4GlHK-9">
          <mxGeometry relative="1" as="geometry" />
        </mxCell>
        <mxCell id="wqZgI4M5ixBPsBJ4GlHK-23" style="edgeStyle=orthogonalEdgeStyle;rounded=0;sketch=1;hachureGap=4;jiggle=2;curveFitting=1;orthogonalLoop=1;jettySize=auto;html=1;entryX=1;entryY=0.5;entryDx=0;entryDy=0;fontFamily=Architects Daughter;fontSource=https%3A%2F%2Ffonts.googleapis.com%2Fcss%3Ffamily%3DArchitects%2BDaughter;" edge="1" parent="1" source="wqZgI4M5ixBPsBJ4GlHK-19" target="wqZgI4M5ixBPsBJ4GlHK-22">
          <mxGeometry relative="1" as="geometry" />
        </mxCell>
        <mxCell id="wqZgI4M5ixBPsBJ4GlHK-26" style="edgeStyle=orthogonalEdgeStyle;rounded=0;sketch=1;hachureGap=4;jiggle=2;curveFitting=1;orthogonalLoop=1;jettySize=auto;html=1;entryX=0;entryY=0.5;entryDx=0;entryDy=0;fontFamily=Architects Daughter;fontSource=https%3A%2F%2Ffonts.googleapis.com%2Fcss%3Ffamily%3DArchitects%2BDaughter;" edge="1" parent="1" source="wqZgI4M5ixBPsBJ4GlHK-22" target="wqZgI4M5ixBPsBJ4GlHK-25">
          <mxGeometry relative="1" as="geometry">
            <Array as="points">
              <mxPoint x="240" y="740" />
            </Array>
          </mxGeometry>
        </mxCell>
        <mxCell id="wqZgI4M5ixBPsBJ4GlHK-32" style="edgeStyle=orthogonalEdgeStyle;rounded=0;sketch=1;hachureGap=4;jiggle=2;curveFitting=1;orthogonalLoop=1;jettySize=auto;html=1;fontFamily=Architects Daughter;fontSource=https%3A%2F%2Ffonts.googleapis.com%2Fcss%3Ffamily%3DArchitects%2BDaughter;" edge="1" parent="1" source="wqZgI4M5ixBPsBJ4GlHK-27" target="wqZgI4M5ixBPsBJ4GlHK-31">
          <mxGeometry relative="1" as="geometry" />
        </mxCell>
        <mxCell id="wqZgI4M5ixBPsBJ4GlHK-33" value="&lt;font style=&quot;font-size: 28px;&quot;&gt;&lt;b&gt;FLOWMAP&lt;/b&gt;&lt;/font&gt;&lt;div&gt;&lt;font style=&quot;font-size: 28px;&quot;&gt;&lt;b&gt;SISTEM PENJUALAN WARUNG KELONTONG PAK WANTO&lt;/b&gt;&lt;/font&gt;&lt;/div&gt;" style="text;html=1;align=center;verticalAlign=middle;whiteSpace=wrap;rounded=0;fontFamily=Architects Daughter;fontSource=https%3A%2F%2Ffonts.googleapis.com%2Fcss%3Ffamily%3DArchitects%2BDaughter;" vertex="1" parent="1">
          <mxGeometry x="170" y="115" width="540" height="30" as="geometry" />
        </mxCell>
        <mxCell id="XhEECG2n9QOZzSU5Pdov-5" style="edgeStyle=orthogonalEdgeStyle;rounded=0;sketch=1;hachureGap=4;jiggle=2;curveFitting=1;orthogonalLoop=1;jettySize=auto;html=1;entryX=0;entryY=0.5;entryDx=0;entryDy=0;fontFamily=Architects Daughter;fontSource=https%3A%2F%2Ffonts.googleapis.com%2Fcss%3Ffamily%3DArchitects%2BDaughter;" edge="1" parent="1" source="XhEECG2n9QOZzSU5Pdov-2" target="XhEECG2n9QOZzSU5Pdov-3">
          <mxGeometry relative="1" as="geometry" />
        </mxCell>
        <mxCell id="XhEECG2n9QOZzSU5Pdov-6" style="edgeStyle=orthogonalEdgeStyle;rounded=0;sketch=1;hachureGap=4;jiggle=2;curveFitting=1;orthogonalLoop=1;jettySize=auto;html=1;entryX=0.5;entryY=0;entryDx=0;entryDy=0;fontFamily=Architects Daughter;fontSource=https%3A%2F%2Ffonts.googleapis.com%2Fcss%3Ffamily%3DArchitects%2BDaughter;" edge="1" parent="1" source="XhEECG2n9QOZzSU5Pdov-3" target="wqZgI4M5ixBPsBJ4GlHK-9">
          <mxGeometry relative="1" as="geometry">
            <Array as="points">
              <mxPoint x="770" y="360" />
              <mxPoint x="445" y="360" />
            </Array>
          </mxGeometry>
        </mxCell>
      </root>
    </mxGraphModel>
  </diagram>
  <diagram id="IsbH8x2DjMni18WdYlxk" name="VTOC">
    <mxGraphModel dx="1114" dy="705" grid="1" gridSize="10" guides="1" tooltips="1" connect="1" arrows="1" fold="1" page="1" pageScale="1" pageWidth="850" pageHeight="1100" math="0" shadow="0">
      <root>
        <mxCell id="0" />
        <mxCell id="1" parent="0" />
        <mxCell id="VZ5mgPB-J-o0ETsVv0lf-6" style="edgeStyle=orthogonalEdgeStyle;rounded=0;hachureGap=4;orthogonalLoop=1;jettySize=auto;html=1;entryX=0.5;entryY=0;entryDx=0;entryDy=0;fontFamily=Architects Daughter;fontSource=https%3A%2F%2Ffonts.googleapis.com%2Fcss%3Ffamily%3DArchitects%2BDaughter;exitX=0.5;exitY=1;exitDx=0;exitDy=0;" edge="1" parent="1" source="VZ5mgPB-J-o0ETsVv0lf-1" target="VZ5mgPB-J-o0ETsVv0lf-2">
          <mxGeometry relative="1" as="geometry" />
        </mxCell>
        <mxCell id="VZ5mgPB-J-o0ETsVv0lf-7" style="edgeStyle=orthogonalEdgeStyle;rounded=0;hachureGap=4;orthogonalLoop=1;jettySize=auto;html=1;entryX=0.5;entryY=0;entryDx=0;entryDy=0;fontFamily=Architects Daughter;fontSource=https%3A%2F%2Ffonts.googleapis.com%2Fcss%3Ffamily%3DArchitects%2BDaughter;exitX=0.5;exitY=1;exitDx=0;exitDy=0;" edge="1" parent="1" source="VZ5mgPB-J-o0ETsVv0lf-1" target="VZ5mgPB-J-o0ETsVv0lf-5">
          <mxGeometry relative="1" as="geometry" />
        </mxCell>
        <mxCell id="VZ5mgPB-J-o0ETsVv0lf-8" style="edgeStyle=orthogonalEdgeStyle;rounded=0;hachureGap=4;orthogonalLoop=1;jettySize=auto;html=1;entryX=0.5;entryY=0;entryDx=0;entryDy=0;fontFamily=Architects Daughter;fontSource=https%3A%2F%2Ffonts.googleapis.com%2Fcss%3Ffamily%3DArchitects%2BDaughter;" edge="1" parent="1" source="VZ5mgPB-J-o0ETsVv0lf-1" target="VZ5mgPB-J-o0ETsVv0lf-4">
          <mxGeometry relative="1" as="geometry" />
        </mxCell>
        <mxCell id="VZ5mgPB-J-o0ETsVv0lf-1" value="SISTEM PENJUALAN WARUNG KELONTONG PAK WANTO" style="rounded=0;whiteSpace=wrap;html=1;hachureGap=4;fontFamily=Architects Daughter;fontSource=https%3A%2F%2Ffonts.googleapis.com%2Fcss%3Ffamily%3DArchitects%2BDaughter;" vertex="1" parent="1">
          <mxGeometry x="350" y="40" width="130" height="70" as="geometry" />
        </mxCell>
        <mxCell id="VZ5mgPB-J-o0ETsVv0lf-12" style="edgeStyle=orthogonalEdgeStyle;rounded=0;hachureGap=4;orthogonalLoop=1;jettySize=auto;html=1;entryX=0;entryY=0.5;entryDx=0;entryDy=0;fontFamily=Architects Daughter;fontSource=https%3A%2F%2Ffonts.googleapis.com%2Fcss%3Ffamily%3DArchitects%2BDaughter;" edge="1" parent="1" source="VZ5mgPB-J-o0ETsVv0lf-2" target="VZ5mgPB-J-o0ETsVv0lf-11">
          <mxGeometry relative="1" as="geometry">
            <Array as="points">
              <mxPoint x="50" y="220" />
              <mxPoint x="50" y="500" />
            </Array>
          </mxGeometry>
        </mxCell>
        <mxCell id="VZ5mgPB-J-o0ETsVv0lf-13" style="edgeStyle=orthogonalEdgeStyle;rounded=0;hachureGap=4;orthogonalLoop=1;jettySize=auto;html=1;entryX=0;entryY=0.5;entryDx=0;entryDy=0;fontFamily=Architects Daughter;fontSource=https%3A%2F%2Ffonts.googleapis.com%2Fcss%3Ffamily%3DArchitects%2BDaughter;exitX=0;exitY=0.5;exitDx=0;exitDy=0;" edge="1" parent="1" source="VZ5mgPB-J-o0ETsVv0lf-2" target="VZ5mgPB-J-o0ETsVv0lf-10">
          <mxGeometry relative="1" as="geometry">
            <Array as="points">
              <mxPoint x="50" y="220" />
              <mxPoint x="50" y="410" />
            </Array>
          </mxGeometry>
        </mxCell>
        <mxCell id="VZ5mgPB-J-o0ETsVv0lf-14" style="edgeStyle=orthogonalEdgeStyle;rounded=0;hachureGap=4;orthogonalLoop=1;jettySize=auto;html=1;entryX=0;entryY=0.5;entryDx=0;entryDy=0;fontFamily=Architects Daughter;fontSource=https%3A%2F%2Ffonts.googleapis.com%2Fcss%3Ffamily%3DArchitects%2BDaughter;exitX=0;exitY=0.5;exitDx=0;exitDy=0;" edge="1" parent="1" source="VZ5mgPB-J-o0ETsVv0lf-2" target="VZ5mgPB-J-o0ETsVv0lf-9">
          <mxGeometry relative="1" as="geometry">
            <Array as="points">
              <mxPoint x="50" y="220" />
              <mxPoint x="50" y="320" />
            </Array>
          </mxGeometry>
        </mxCell>
        <mxCell id="VZ5mgPB-J-o0ETsVv0lf-2" value="1. 0 Transaksi&lt;span style=&quot;color: rgba(0, 0, 0, 0); font-family: monospace; font-size: 0px; text-align: start; text-wrap-mode: nowrap;&quot;&gt;%3CmxGraphModel%3E%3Croot%3E%3CmxCell%20id%3D%220%22%2F%3E%3CmxCell%20id%3D%221%22%20parent%3D%220%22%2F%3E%3CmxCell%20id%3D%222%22%20value%3D%22%22%20style%3D%22rounded%3D0%3BwhiteSpace%3Dwrap%3Bhtml%3D1%3Bsketch%3D1%3BhachureGap%3D4%3Bjiggle%3D2%3BcurveFitting%3D1%3BfontFamily%3DArchitects%20Daughter%3BfontSource%3Dhttps%253A%252F%252Ffonts.googleapis.com%252Fcss%253Ffamily%253DArchitects%252BDaughter%3B%22%20vertex%3D%221%22%20parent%3D%221%22%3E%3CmxGeometry%20x%3D%2280%22%20y%3D%22160%22%20width%3D%22120%22%20height%3D%2260%22%20as%3D%22geometry%22%2F%3E%3C%2FmxCell%3E%3C%2Froot%3E%3C%2FmxGraphModel%3E&lt;/span&gt;" style="rounded=0;whiteSpace=wrap;html=1;hachureGap=4;fontFamily=Architects Daughter;fontSource=https%3A%2F%2Ffonts.googleapis.com%2Fcss%3Ffamily%3DArchitects%2BDaughter;" vertex="1" parent="1">
          <mxGeometry x="100" y="190" width="120" height="60" as="geometry" />
        </mxCell>
        <mxCell id="VZ5mgPB-J-o0ETsVv0lf-18" style="edgeStyle=orthogonalEdgeStyle;rounded=0;hachureGap=4;orthogonalLoop=1;jettySize=auto;html=1;entryX=0;entryY=0.5;entryDx=0;entryDy=0;fontFamily=Architects Daughter;fontSource=https%3A%2F%2Ffonts.googleapis.com%2Fcss%3Ffamily%3DArchitects%2BDaughter;exitX=0;exitY=0.5;exitDx=0;exitDy=0;" edge="1" parent="1" source="VZ5mgPB-J-o0ETsVv0lf-4" target="VZ5mgPB-J-o0ETsVv0lf-15">
          <mxGeometry relative="1" as="geometry">
            <Array as="points">
              <mxPoint x="320" y="220" />
              <mxPoint x="320" y="320" />
            </Array>
          </mxGeometry>
        </mxCell>
        <mxCell id="VZ5mgPB-J-o0ETsVv0lf-19" style="edgeStyle=orthogonalEdgeStyle;rounded=0;hachureGap=4;orthogonalLoop=1;jettySize=auto;html=1;entryX=0;entryY=0.5;entryDx=0;entryDy=0;fontFamily=Architects Daughter;fontSource=https%3A%2F%2Ffonts.googleapis.com%2Fcss%3Ffamily%3DArchitects%2BDaughter;exitX=0;exitY=0.5;exitDx=0;exitDy=0;" edge="1" parent="1" source="VZ5mgPB-J-o0ETsVv0lf-4" target="VZ5mgPB-J-o0ETsVv0lf-16">
          <mxGeometry relative="1" as="geometry">
            <Array as="points">
              <mxPoint x="320" y="220" />
              <mxPoint x="320" y="410" />
            </Array>
          </mxGeometry>
        </mxCell>
        <mxCell id="VZ5mgPB-J-o0ETsVv0lf-20" style="edgeStyle=orthogonalEdgeStyle;rounded=0;hachureGap=4;orthogonalLoop=1;jettySize=auto;html=1;entryX=0;entryY=0.5;entryDx=0;entryDy=0;fontFamily=Architects Daughter;fontSource=https%3A%2F%2Ffonts.googleapis.com%2Fcss%3Ffamily%3DArchitects%2BDaughter;" edge="1" parent="1" source="VZ5mgPB-J-o0ETsVv0lf-4" target="VZ5mgPB-J-o0ETsVv0lf-17">
          <mxGeometry relative="1" as="geometry">
            <Array as="points">
              <mxPoint x="320" y="220" />
              <mxPoint x="320" y="500" />
            </Array>
          </mxGeometry>
        </mxCell>
        <mxCell id="VZ5mgPB-J-o0ETsVv0lf-22" style="edgeStyle=orthogonalEdgeStyle;rounded=0;hachureGap=4;orthogonalLoop=1;jettySize=auto;html=1;entryX=0;entryY=0.5;entryDx=0;entryDy=0;fontFamily=Architects Daughter;fontSource=https%3A%2F%2Ffonts.googleapis.com%2Fcss%3Ffamily%3DArchitects%2BDaughter;" edge="1" parent="1" source="VZ5mgPB-J-o0ETsVv0lf-4" target="VZ5mgPB-J-o0ETsVv0lf-21">
          <mxGeometry relative="1" as="geometry">
            <Array as="points">
              <mxPoint x="320" y="220" />
              <mxPoint x="320" y="590" />
            </Array>
          </mxGeometry>
        </mxCell>
        <mxCell id="VZ5mgPB-J-o0ETsVv0lf-4" value="2.0 Stok Barang" style="rounded=0;whiteSpace=wrap;html=1;hachureGap=4;fontFamily=Architects Daughter;fontSource=https%3A%2F%2Ffonts.googleapis.com%2Fcss%3Ffamily%3DArchitects%2BDaughter;" vertex="1" parent="1">
          <mxGeometry x="355" y="190" width="120" height="60" as="geometry" />
        </mxCell>
        <mxCell id="1PSrvxoJcTxmn1dHCUWs-4" style="edgeStyle=orthogonalEdgeStyle;rounded=0;hachureGap=4;orthogonalLoop=1;jettySize=auto;html=1;entryX=0;entryY=0.5;entryDx=0;entryDy=0;fontFamily=Architects Daughter;fontSource=https%3A%2F%2Ffonts.googleapis.com%2Fcss%3Ffamily%3DArchitects%2BDaughter;exitX=0;exitY=0.5;exitDx=0;exitDy=0;" edge="1" parent="1" source="VZ5mgPB-J-o0ETsVv0lf-5" target="1PSrvxoJcTxmn1dHCUWs-1">
          <mxGeometry relative="1" as="geometry">
            <Array as="points">
              <mxPoint x="560" y="220" />
              <mxPoint x="560" y="320" />
            </Array>
          </mxGeometry>
        </mxCell>
        <mxCell id="1PSrvxoJcTxmn1dHCUWs-5" style="edgeStyle=orthogonalEdgeStyle;rounded=0;hachureGap=4;orthogonalLoop=1;jettySize=auto;html=1;entryX=0;entryY=0.5;entryDx=0;entryDy=0;fontFamily=Architects Daughter;fontSource=https%3A%2F%2Ffonts.googleapis.com%2Fcss%3Ffamily%3DArchitects%2BDaughter;" edge="1" parent="1" source="VZ5mgPB-J-o0ETsVv0lf-5" target="1PSrvxoJcTxmn1dHCUWs-2">
          <mxGeometry relative="1" as="geometry">
            <Array as="points">
              <mxPoint x="560" y="220" />
              <mxPoint x="560" y="410" />
            </Array>
          </mxGeometry>
        </mxCell>
        <mxCell id="1PSrvxoJcTxmn1dHCUWs-6" style="edgeStyle=orthogonalEdgeStyle;rounded=0;hachureGap=4;orthogonalLoop=1;jettySize=auto;html=1;entryX=0;entryY=0.5;entryDx=0;entryDy=0;fontFamily=Architects Daughter;fontSource=https%3A%2F%2Ffonts.googleapis.com%2Fcss%3Ffamily%3DArchitects%2BDaughter;" edge="1" parent="1" source="VZ5mgPB-J-o0ETsVv0lf-5" target="1PSrvxoJcTxmn1dHCUWs-3">
          <mxGeometry relative="1" as="geometry">
            <Array as="points">
              <mxPoint x="560" y="220" />
              <mxPoint x="560" y="500" />
            </Array>
          </mxGeometry>
        </mxCell>
        <mxCell id="VZ5mgPB-J-o0ETsVv0lf-5" value="3.0 Laporan" style="rounded=0;whiteSpace=wrap;html=1;hachureGap=4;fontFamily=Architects Daughter;fontSource=https%3A%2F%2Ffonts.googleapis.com%2Fcss%3Ffamily%3DArchitects%2BDaughter;" vertex="1" parent="1">
          <mxGeometry x="600" y="190" width="120" height="60" as="geometry" />
        </mxCell>
        <mxCell id="VZ5mgPB-J-o0ETsVv0lf-9" value="1.1 melakukan pembayaran" style="rounded=0;whiteSpace=wrap;html=1;hachureGap=4;fontFamily=Architects Daughter;fontSource=https%3A%2F%2Ffonts.googleapis.com%2Fcss%3Ffamily%3DArchitects%2BDaughter;" vertex="1" parent="1">
          <mxGeometry x="100" y="290" width="120" height="60" as="geometry" />
        </mxCell>
        <mxCell id="VZ5mgPB-J-o0ETsVv0lf-10" value="1.2 menerima pembayaran" style="rounded=0;whiteSpace=wrap;html=1;hachureGap=4;fontFamily=Architects Daughter;fontSource=https%3A%2F%2Ffonts.googleapis.com%2Fcss%3Ffamily%3DArchitects%2BDaughter;" vertex="1" parent="1">
          <mxGeometry x="100" y="380" width="120" height="60" as="geometry" />
        </mxCell>
        <mxCell id="VZ5mgPB-J-o0ETsVv0lf-11" value="1.3 Pencatatan setiap transaksi" style="rounded=0;whiteSpace=wrap;html=1;hachureGap=4;fontFamily=Architects Daughter;fontSource=https%3A%2F%2Ffonts.googleapis.com%2Fcss%3Ffamily%3DArchitects%2BDaughter;" vertex="1" parent="1">
          <mxGeometry x="100" y="470" width="120" height="60" as="geometry" />
        </mxCell>
        <mxCell id="VZ5mgPB-J-o0ETsVv0lf-15" value="2.1 Tanya ketersediaan barang" style="rounded=0;whiteSpace=wrap;html=1;hachureGap=4;fontFamily=Architects Daughter;fontSource=https%3A%2F%2Ffonts.googleapis.com%2Fcss%3Ffamily%3DArchitects%2BDaughter;" vertex="1" parent="1">
          <mxGeometry x="355" y="290" width="120" height="60" as="geometry" />
        </mxCell>
        <mxCell id="VZ5mgPB-J-o0ETsVv0lf-16" value="2.2 Pengecekan stok barang" style="rounded=0;whiteSpace=wrap;html=1;hachureGap=4;fontFamily=Architects Daughter;fontSource=https%3A%2F%2Ffonts.googleapis.com%2Fcss%3Ffamily%3DArchitects%2BDaughter;" vertex="1" parent="1">
          <mxGeometry x="355" y="380" width="120" height="60" as="geometry" />
        </mxCell>
        <mxCell id="VZ5mgPB-J-o0ETsVv0lf-17" value="2.3 Mengurangi Stok Barang" style="rounded=0;whiteSpace=wrap;html=1;hachureGap=4;fontFamily=Architects Daughter;fontSource=https%3A%2F%2Ffonts.googleapis.com%2Fcss%3Ffamily%3DArchitects%2BDaughter;" vertex="1" parent="1">
          <mxGeometry x="355" y="470" width="120" height="60" as="geometry" />
        </mxCell>
        <mxCell id="VZ5mgPB-J-o0ETsVv0lf-21" value="2.3 Menambah Stok Barang" style="rounded=0;whiteSpace=wrap;html=1;hachureGap=4;fontFamily=Architects Daughter;fontSource=https%3A%2F%2Ffonts.googleapis.com%2Fcss%3Ffamily%3DArchitects%2BDaughter;" vertex="1" parent="1">
          <mxGeometry x="355" y="560" width="120" height="60" as="geometry" />
        </mxCell>
        <mxCell id="1PSrvxoJcTxmn1dHCUWs-1" value="3.1 Laporan keuntungan" style="rounded=0;whiteSpace=wrap;html=1;hachureGap=4;fontFamily=Architects Daughter;fontSource=https%3A%2F%2Ffonts.googleapis.com%2Fcss%3Ffamily%3DArchitects%2BDaughter;" vertex="1" parent="1">
          <mxGeometry x="600" y="290" width="120" height="60" as="geometry" />
        </mxCell>
        <mxCell id="1PSrvxoJcTxmn1dHCUWs-2" value="3.2 Laporan Transaksi" style="rounded=0;whiteSpace=wrap;html=1;hachureGap=4;fontFamily=Architects Daughter;fontSource=https%3A%2F%2Ffonts.googleapis.com%2Fcss%3Ffamily%3DArchitects%2BDaughter;" vertex="1" parent="1">
          <mxGeometry x="600" y="380" width="120" height="60" as="geometry" />
        </mxCell>
        <mxCell id="1PSrvxoJcTxmn1dHCUWs-3" value="3.3 Laporan Stok Barang" style="rounded=0;whiteSpace=wrap;html=1;hachureGap=4;fontFamily=Architects Daughter;fontSource=https%3A%2F%2Ffonts.googleapis.com%2Fcss%3Ffamily%3DArchitects%2BDaughter;" vertex="1" parent="1">
          <mxGeometry x="600" y="470" width="120" height="60" as="geometry" />
        </mxCell>
        <mxCell id="1PSrvxoJcTxmn1dHCUWs-7" value="&lt;font style=&quot;font-size: 42px;&quot;&gt;&lt;b&gt;VTOC&lt;/b&gt;&lt;/font&gt;" style="text;html=1;align=center;verticalAlign=middle;whiteSpace=wrap;rounded=0;fontFamily=Architects Daughter;fontSource=https%3A%2F%2Ffonts.googleapis.com%2Fcss%3Ffamily%3DArchitects%2BDaughter;" vertex="1" parent="1">
          <mxGeometry x="570" y="50" width="60" height="30" as="geometry" />
        </mxCell>
      </root>
    </mxGraphModel>
  </diagram>
</mxfile>
